<?xml version="1.0" encoding="UTF-8"?> <svg xmlns="http://www.w3.org/2000/svg" viewBox="0 0 75.76 75.31"> <defs> <style>.cls-1{fill:#15f9ff;}</style> </defs> <title>roadmap iconAsset 20</title> <g id="Layer_2" data-name="Layer 2"> <g id="Layer_1-2" data-name="Layer 1"> <path class="cls-1" d="M21.75,48.17a.86.86,0,0,1-1.54.44L8,37.17a.92.92,0,0,1,.31-1.65l17.2-6.88c.8-.32,1.28.1,1.07.94Z"></path> <path class="cls-1" d="M11.62,59c-.66.56-1.32.33-1.47-.52L6.79,39.92c-.16-.84.24-1.06.87-.47L19.33,50.34a1.39,1.39,0,0,1,0,2.1Z"></path> <path class="cls-1" d="M25.7,24.94a1.05,1.05,0,0,1-.44,1.77L8.16,33.55c-.8.32-1.21-.08-.91-.89l7-18.88a.85.85,0,0,1,1.57-.28Z"></path> <path class="cls-1" d="M7.77,55.88c.16.85-.1.95-.57.23L.57,45.86a2.43,2.43,0,0,1,.08-2.57l3-4c.51-.69,1.06-.57,1.21.28Z"></path> <path class="cls-1" d="M5.69,31.5c-.31.81-.77.8-1.05,0l-2.26-6.8A2.6,2.6,0,0,1,3,22.14l8.08-7.32c.64-.58.92-.39.62.42Z"></path> <path class="cls-1" d="M3.55,34.12a3.34,3.34,0,0,1-.44,2.75L.79,40c-.51.69-.86.55-.78-.3l1.12-10.8c.08-.86.38-.89.65-.07Z"></path> <path class="cls-1" d="M12.67,9.82c.29.33,0,1.08-.64,1.66L8.4,14.77c-.64.58-.75.49-.23-.21l3-4.09C11.73,9.78,12.38,9.48,12.67,9.82Z"></path> <path class="cls-1" d="M35.6,67.26a.92.92,0,0,1-1.68.07L24.42,53.5a.85.85,0,0,1,.67-1.45l19.09-2c.86-.09,1.21.45.77,1.19Z"></path> <path class="cls-1" d="M31.62,67.28c.49.71.22,1.06-.59.79L13.13,62a.82.82,0,0,1-.29-1.53l7.67-6.61a1.37,1.37,0,0,1,2.07.27Z"></path> <path class="cls-1" d="M44.58,46.86c.56.66.32,1.27-.54,1.35l-19.37,2a1,1,0,0,1-1.17-1.36L28.35,30c.22-.83.85-1,1.41-.33Z"></path> <path class="cls-1" d="M58.5,63A.85.85,0,0,1,58,64.54L38.28,68.69c-.84.18-1.18-.29-.74-1l9.29-15.91a1.06,1.06,0,0,1,1.82-.16Z"></path> <path class="cls-1" d="M26.79,73.64a2.45,2.45,0,0,1-2.56-.3l-9.14-8.08c-.65-.57-.51-.81.3-.53l15.67,5.32c.81.28.86.84.1,1.24Z"></path> <path class="cls-1" d="M48.06,74.41a2.63,2.63,0,0,1-2.61.28l-6.39-3.25c-.77-.39-.71-.86.13-1l17-3.58c.84-.18,1,.12.32.67Z"></path> <path class="cls-1" d="M30.27,74.8c-.86,0-.94-.4-.18-.81l3.41-1.83a3.39,3.39,0,0,1,2.79,0l5,2.54c.77.39.69.68-.17.64Z"></path> <path class="cls-1" d="M61.68,66.71c.28.33-.1.94-.87,1.35l-4.5,2.4c-.76.4-.84.29-.17-.26l3.8-3.1C60.61,66.55,61.39,66.38,61.68,66.71Z"></path> <path class="cls-1" d="M50.3,46.67c-.8.32-1.28-.11-1.07-.94L54,27.14a.86.86,0,0,1,1.54-.45L67.81,38.14a.92.92,0,0,1-.31,1.65Z"></path> <path class="cls-1" d="M69,35.38c.16.85-.23,1.06-.86.48L56.43,25a1.37,1.37,0,0,1,0-2.09l7.66-6.61c.66-.56,1.32-.32,1.47.52Z"></path> <path class="cls-1" d="M61.49,61.53a.85.85,0,0,1-1.57.28L50.06,50.37a1.05,1.05,0,0,1,.44-1.77l17.11-6.84c.8-.32,1.21.08.91.89Z"></path> <path class="cls-1" d="M75.2,29.45A2.43,2.43,0,0,1,75.11,32l-3,4c-.52.69-1.07.56-1.22-.29L68,19.43c-.16-.85.1-.95.57-.23Z"></path> <path class="cls-1" d="M73.39,50.62a2.61,2.61,0,0,1-.67,2.54l-8.08,7.33c-.64.58-.92.39-.62-.42l6.06-16.26c.3-.81.77-.8,1,0Z"></path> <path class="cls-1" d="M74.64,46.43c-.09.85-.39.89-.66.07l-1.77-5.32a3.39,3.39,0,0,1,.44-2.74L75,35.33c.52-.69.87-.56.78.3Z"></path> <path class="cls-1" d="M64.55,64.84c-.52.69-1.17,1-1.46.65s0-1.08.64-1.66l3.64-3.29c.63-.58.74-.49.22.2Z"></path> <path class="cls-1" d="M51.34,21.81a.85.85,0,0,1-.67,1.45l-19.09,2c-.86.09-1.21-.45-.77-1.19L40.16,8A.92.92,0,0,1,41.84,8Z"></path> <path class="cls-1" d="M55.26,21.45a1.38,1.38,0,0,1-2.08-.26L44.14,8c-.49-.71-.22-1.07.59-.79l17.9,6.08a.82.82,0,0,1,.3,1.53Z"></path> <path class="cls-1" d="M47.41,45.31c-.21.84-.85,1-1.41.34L31.18,28.44c-.56-.65-.32-1.26.54-1.35l19.37-2a1,1,0,0,1,1.17,1.36Z"></path> <path class="cls-1" d="M28.93,23.55a1.06,1.06,0,0,1-1.82.17L17.26,12.28a.85.85,0,0,1,.51-1.51L37.48,6.62c.85-.18,1.18.28.75,1Z"></path> <path class="cls-1" d="M44.71,5.26C43.89,5,43.84,4.42,44.6,4L49,1.67a2.43,2.43,0,0,1,2.56.3l9.15,8.08c.64.57.5.81-.31.53Z"></path> <path class="cls-1" d="M19.59,8.48c-.85.17-1-.13-.33-.67L27.7.9A2.65,2.65,0,0,1,30.32.62L36.7,3.87c.77.39.71.85-.13,1Z"></path> <path class="cls-1" d="M42.26,3.15a3.37,3.37,0,0,1-2.78,0l-5-2.54c-.77-.39-.69-.68.17-.64L45.49.5c.86,0,.95.41.19.82Z"></path> <path class="cls-1" d="M15.82,8.21c-.67.55-1.45.72-1.73.39s.1-.94.86-1.35l4.5-2.4c.76-.41.84-.29.17.25Z"></path> <path class="cls-1" d="M10,62.86c.34-.28,1.08,0,1.66.64L15,67.14c.58.64.48.74-.21.23L10.7,64.32C10,63.81,9.71,63.15,10,62.86Z"></path> <path class="cls-1" d="M66.94,13.86c.33-.29.94.1,1.34.86l2.41,4.5c.4.76.29.84-.26.17l-3.1-3.8C66.78,14.93,66.61,14.15,66.94,13.86Z"></path> <path class="cls-1" d="M65.07,11c.69.51,1,1.17.65,1.45s-1.08,0-1.66-.64l-3.3-3.63c-.57-.64-.48-.74.21-.23Z"></path> <path class="cls-1" d="M8.44,59.71c.54.67.72,1.45.38,1.74s-.93-.1-1.34-.86L5.07,56.08c-.4-.76-.29-.83.26-.17Z"></path> </g> </g> </svg> 