<?xml version="1.0" encoding="UTF-8"?> <svg xmlns="http://www.w3.org/2000/svg" viewBox="0 0 119.52 215" data-type="color"> <g> <g> <path d="M95.59 150.42a1.08 1.08 0 0 1-.81-.37l-2.56-3a1.06 1.06 0 0 1 .11-1.5 1.07 1.07 0 0 1 1.51.11l1.67 2 5.29-6.39c.82-1.15 1.67-.51.85.64l-5.2 8.1a1.07 1.07 0 0 1-.82.45z" fill="#3f4971" data-color="1"></path> <path d="M96.11 205.86h.13a3.78 3.78 0 0 0 2.89-1.25c1.58-1.78 1.32-4.84 1.29-5.13a4.2 4.2 0 0 0-2-3.72 4.53 4.53 0 0 0-2.2-.58h-.07a4.55 4.55 0 0 0-2.21.56 4.22 4.22 0 0 0-2 3.74c0 .29-.29 3.35 1.29 5.13a3.74 3.74 0 0 0 2.88 1.25zM93 199.58c.14-2.94 2.22-3.26 3.11-3.26 1.11 0 3 .48 3.12 3.26s.29 2.82-1 4.29a2.68 2.68 0 0 1-2.11.88 2.67 2.67 0 0 1-2.11-.88c-1.3-1.46-1-4.26-1-4.29z" fill="#15f9ff" data-color="2"></path> <path d="M104.6 210.92v-.1c0-.81-.08-2.71-1.85-3.32a11.6 11.6 0 0 1-3.39-1.56.56.56 0 0 0-.77.14.55.55 0 0 0 .13.77 12.6 12.6 0 0 0 3.74 1.71c.95.34 1.06 1.37 1.09 2.3v.1a7.47 7.47 0 0 1-.08 1.27 16.29 16.29 0 0 1-14.45 0 7.47 7.47 0 0 1-.08-1.27v-.1c0-.94.13-2 1.09-2.3a13.18 13.18 0 0 0 3.74-1.71.56.56 0 0 0-.64-.91 11.54 11.54 0 0 1-3.4 1.55c-1.77.62-1.83 2.52-1.85 3.33a.34.34 0 0 1 0 .1 6.74 6.74 0 0 0 .21 1.86.51.51 0 0 0 .22.26 17.29 17.29 0 0 0 16 0 .54.54 0 0 0 .21-.26 7 7 0 0 0 .2-1.86z" fill="#15f9ff" data-color="2"></path> <path d="M111 197.59h.13a3.78 3.78 0 0 0 2.89-1.25c1.58-1.78 1.32-4.84 1.29-5.13a4.2 4.2 0 0 0-2-3.72 4.42 4.42 0 0 0-2.2-.58h-.07a4.55 4.55 0 0 0-2.21.56 4.2 4.2 0 0 0-2 3.74c0 .29-.29 3.35 1.29 5.13a3.74 3.74 0 0 0 2.88 1.25zm-3-6.28c.14-2.94 2.22-3.26 3.11-3.26h.05c1.11 0 3 .48 3.11 3.26s.29 2.82-1 4.29a2.71 2.71 0 0 1-2.11.88 2.7 2.7 0 0 1-2.11-.88c-1.3-1.46-1-4.26-1-4.29z" fill="#15f9ff" data-color="2"></path> <path d="M119.51 202.65v-.1c0-.81-.08-2.71-1.86-3.32a11.89 11.89 0 0 1-3.4-1.56.55.55 0 1 0-.63.91 12.6 12.6 0 0 0 3.74 1.71c1 .34 1.06 1.37 1.09 2.3v.1a7.47 7.47 0 0 1-.08 1.27 16.29 16.29 0 0 1-14.45 0 7.45 7.45 0 0 1-.09-1.27v-.1c0-.94.13-2 1.09-2.3a13.18 13.18 0 0 0 3.74-1.71.56.56 0 0 0-.64-.91 11.54 11.54 0 0 1-3.4 1.55c-1.78.62-1.83 2.52-1.85 3.32a.41.41 0 0 1 0 .11 6.37 6.37 0 0 0 .21 1.86.54.54 0 0 0 .21.26 17.29 17.29 0 0 0 16 0 .51.51 0 0 0 .22-.26 6.55 6.55 0 0 0 .19-1.86z" fill="#15f9ff" data-color="2"></path> <path d="M81.19 197.59h.13a3.76 3.76 0 0 0 2.89-1.25c1.58-1.78 1.32-4.84 1.29-5.13a4.18 4.18 0 0 0-2-3.72 4.39 4.39 0 0 0-2.2-.58h-.07a4.49 4.49 0 0 0-2.2.56 4.2 4.2 0 0 0-2 3.74c0 .29-.29 3.35 1.29 5.13a3.74 3.74 0 0 0 2.88 1.25zm-3.07-6.28c.14-2.94 2.22-3.26 3.11-3.26 1.11 0 3 .48 3.12 3.26s.29 2.82-1 4.29a2.71 2.71 0 0 1-2.11.88 2.71 2.71 0 0 1-2.11-.88c-1.3-1.46-1-4.26-1-4.29z" fill="#15f9ff" data-color="2"></path> <path d="M89.68 202.65v-.1c0-.81-.08-2.71-1.85-3.32a11.58 11.58 0 0 1-3.4-1.56.56.56 0 0 0-.77.14.55.55 0 0 0 .13.77 12.6 12.6 0 0 0 3.74 1.71c1 .34 1.06 1.37 1.09 2.3v.1a7.47 7.47 0 0 1-.08 1.27 16.29 16.29 0 0 1-14.45 0 7.47 7.47 0 0 1-.08-1.27v-.1c0-.94.14-2 1.09-2.3a13.18 13.18 0 0 0 3.74-1.71.56.56 0 0 0-.64-.91 11.54 11.54 0 0 1-3.4 1.55c-1.77.62-1.83 2.52-1.85 3.32a.41.41 0 0 1 0 .11 6.74 6.74 0 0 0 .21 1.86.51.51 0 0 0 .22.26 15.45 15.45 0 0 0 8 2 15.55 15.55 0 0 0 8-2 .54.54 0 0 0 .21-.26 7 7 0 0 0 .2-1.86z" fill="#15f9ff" data-color="2"></path> <path d="M103.2 163.47a2.24 2.24 0 0 0 2.23-2.25v-29a2.24 2.24 0 0 0-2.23-2.22H89.34a2.25 2.25 0 0 0-2.24 2.24v29a2.25 2.25 0 0 0 2.24 2.25zm-15.26-31.23a1.4 1.4 0 0 1 1.4-1.4h13.86a1.4 1.4 0 0 1 1.4 1.4v1.56H87.94zm0 2.4h16.66v22H87.94zm0 26.58v-3.78h16.66v3.78a1.41 1.41 0 0 1-1.4 1.41H89.34a1.41 1.41 0 0 1-1.4-1.41z" fill="#15f9ff" data-color="2"></path> <path d="M96.27 161.83a1.72 1.72 0 1 0-1.72-1.72 1.72 1.72 0 0 0 1.72 1.72zm0-2.61a.89.89 0 1 1-.89.89.89.89 0 0 1 .89-.89z" fill="#15f9ff" data-color="2"></path> <path d="M96.4 190.21h-1.09v-4.35h1.09zm0-8.71h-1.09v-4.35h1.09zm0-8.71h-1.09v-4.35h1.09z" fill="#15f9ff" data-color="2"></path> <path d="M23.3 150.42a1.1 1.1 0 0 1-.81-.37l-2.56-3a1.07 1.07 0 0 1 1.62-1.39l1.68 2 5.28-6.39c.82-1.15 1.68-.51.86.64l-5.2 8.1a1.07 1.07 0 0 1-.82.45z" fill="#3f4971" data-color="1"></path> <path d="M23.83 205.86H24a3.78 3.78 0 0 0 2.89-1.25c1.57-1.78 1.31-4.84 1.28-5.13a4.18 4.18 0 0 0-2-3.72 4.57 4.57 0 0 0-2.21-.58h-.07a4.54 4.54 0 0 0-2.2.56 4.2 4.2 0 0 0-2 3.74c0 .29-.29 3.35 1.28 5.13a3.78 3.78 0 0 0 2.89 1.25zm-3.08-6.28c.13-2.94 2.22-3.26 3.11-3.26h.05c1.1 0 3 .48 3.11 3.26s.29 2.82-1 4.29a2.65 2.65 0 0 1-2.11.88 2.64 2.64 0 0 1-2.1-.88c-1.3-1.46-1-4.26-1-4.29z" fill="#15f9ff" data-color="2"></path> <path d="M32.31 210.92v-.1c0-.81-.08-2.71-1.86-3.32a11.73 11.73 0 0 1-3.4-1.56.56.56 0 0 0-.77.14.55.55 0 0 0 .14.77 12.6 12.6 0 0 0 3.74 1.71c.95.34 1.06 1.37 1.08 2.3a.31.31 0 0 0 0 .1 7.45 7.45 0 0 1-.09 1.27 15 15 0 0 1-7.22 1.69 15 15 0 0 1-7.22-1.69 6.55 6.55 0 0 1-.09-1.27v-.1c0-.94.14-2 1.09-2.3a13.18 13.18 0 0 0 3.74-1.71.55.55 0 0 0-.63-.91 11.7 11.7 0 0 1-3.4 1.55c-1.78.62-1.83 2.52-1.86 3.33v.1a6 6 0 0 0 .21 1.86.49.49 0 0 0 .21.26 15.51 15.51 0 0 0 8 2 15.49 15.49 0 0 0 8-2 .49.49 0 0 0 .21-.26 6.62 6.62 0 0 0 .2-1.86z" fill="#15f9ff" data-color="2"></path> <path d="M38.75 197.59h.13a3.78 3.78 0 0 0 2.89-1.25c1.57-1.78 1.31-4.84 1.28-5.13a4.18 4.18 0 0 0-2-3.72 4.46 4.46 0 0 0-2.21-.58h-.07a4.51 4.51 0 0 0-2.2.56 4.2 4.2 0 0 0-2 3.74c0 .29-.29 3.35 1.28 5.13a3.78 3.78 0 0 0 2.89 1.25zm-3.08-6.28c.13-2.94 2.22-3.26 3.11-3.26h.05c1.1 0 3 .48 3.11 3.26s.3 2.82-1 4.29a2.68 2.68 0 0 1-2.11.88 2.68 2.68 0 0 1-2.1-.88c-1.3-1.46-1-4.26-1-4.29z" fill="#15f9ff" data-color="2"></path> <path d="M47.23 202.65v-.1c0-.81-.08-2.71-1.86-3.32a11.73 11.73 0 0 1-3.4-1.56.56.56 0 0 0-.77.14.55.55 0 0 0 .13.77 12.6 12.6 0 0 0 3.67 1.69c1 .34 1.07 1.37 1.09 2.3a.31.31 0 0 0 0 .1 7.45 7.45 0 0 1-.09 1.27 15 15 0 0 1-7.22 1.69 15 15 0 0 1-7.22-1.69 6.55 6.55 0 0 1-.09-1.27v-.1c0-.94.14-2 1.09-2.3a13.18 13.18 0 0 0 3.74-1.71.56.56 0 0 0 .14-.77.55.55 0 0 0-.77-.14 11.85 11.85 0 0 1-3.4 1.55c-1.78.62-1.83 2.52-1.86 3.32v.11a6 6 0 0 0 .21 1.86.49.49 0 0 0 .21.26 15.51 15.51 0 0 0 8 2 15.49 15.49 0 0 0 8-2 .54.54 0 0 0 .21-.26 6.62 6.62 0 0 0 .2-1.86z" fill="#15f9ff" data-color="2"></path> <path d="M8.91 197.59H9a3.78 3.78 0 0 0 2.89-1.25c1.57-1.78 1.31-4.84 1.28-5.13a4.18 4.18 0 0 0-2-3.72 4.46 4.46 0 0 0-2.17-.58 4.54 4.54 0 0 0-2.2.56 4.2 4.2 0 0 0-2 3.74c0 .29-.29 3.35 1.29 5.13a3.74 3.74 0 0 0 2.88 1.25zm-3.08-6.28C6 188.34 8.06 188 9 188c1.11 0 3 .48 3.11 3.26s.29 2.82-1 4.29a2.68 2.68 0 0 1-2.1.88H9a2.68 2.68 0 0 1-2.1-.88c-1.3-1.46-1-4.26-1-4.29z" fill="#15f9ff" data-color="2"></path> <path d="M17.39 202.65v-.1c0-.81-.08-2.71-1.86-3.32a11.73 11.73 0 0 1-3.4-1.56.55.55 0 1 0-.63.91 12.6 12.6 0 0 0 3.74 1.71c.95.34 1.06 1.37 1.09 2.3v.1a7.45 7.45 0 0 1-.09 1.27A15 15 0 0 1 9 205.63a15.07 15.07 0 0 1-7.22-1.69 6.55 6.55 0 0 1-.09-1.27v-.1c0-.94.13-2 1.09-2.3a12.89 12.89 0 0 0 3.73-1.71.55.55 0 0 0-.63-.91 11.7 11.7 0 0 1-3.4 1.55c-1.78.62-1.83 2.52-1.86 3.32v.11a6.37 6.37 0 0 0 .21 1.86.49.49 0 0 0 .21.26 15.51 15.51 0 0 0 8 2 15.49 15.49 0 0 0 8-2 .49.49 0 0 0 .21-.26 6.27 6.27 0 0 0 .2-1.86z" fill="#15f9ff" data-color="2"></path> <path d="M30.91 163.47a2.24 2.24 0 0 0 2.24-2.25v-29a2.24 2.24 0 0 0-2.24-2.22H17.05a2.24 2.24 0 0 0-2.23 2.24v29a2.24 2.24 0 0 0 2.23 2.25zm-15.26-31.23a1.4 1.4 0 0 1 1.4-1.4h13.86a1.4 1.4 0 0 1 1.4 1.4v1.56H15.65zm0 2.4h16.66v22H15.65zm0 26.58v-3.78h16.66v3.78a1.4 1.4 0 0 1-1.4 1.41H17.05a1.41 1.41 0 0 1-1.4-1.41z" fill="#15f9ff" data-color="2"></path> <path d="M24 161.83a1.72 1.72 0 1 0-1.72-1.72 1.72 1.72 0 0 0 1.72 1.72zm0-2.61a.89.89 0 1 1 0 1.78.89.89 0 0 1 0-1.77z" fill="#15f9ff" data-color="2"></path> <path d="M24.12 190.21H23v-4.35h1.09zm0-8.71H23v-4.35h1.09zm0-8.71H23v-4.35h1.09z" fill="#15f9ff" data-color="2"></path> <path d="M95 20.42a1.08 1.08 0 0 1-.81-.37l-2.56-3a1.07 1.07 0 0 1 1.62-1.39l1.67 2 5.29-6.39c.82-1.15 1.67-.51.85.64L95.88 20a1.07 1.07 0 0 1-.82.45z" fill="#3f4971" data-color="1"></path> <path d="M95.54 75.86h.13a3.76 3.76 0 0 0 2.89-1.25c1.58-1.78 1.32-4.84 1.29-5.13a4.18 4.18 0 0 0-2-3.72 4.5 4.5 0 0 0-2.2-.58h-.07a4.49 4.49 0 0 0-2.2.56 4.22 4.22 0 0 0-2 3.74c0 .29-.29 3.35 1.29 5.13a3.74 3.74 0 0 0 2.88 1.25zm-3.07-6.28c.14-2.94 2.22-3.26 3.11-3.26 1.11 0 3 .48 3.12 3.26s.29 2.82-1 4.29a2.68 2.68 0 0 1-2.11.88 2.68 2.68 0 0 1-2.11-.88c-1.29-1.46-1-4.26-1-4.29z" fill="#15f9ff" data-color="2"></path> <path d="M104 80.92v-.1c0-.81-.08-2.71-1.85-3.32a11.58 11.58 0 0 1-3.4-1.56.56.56 0 0 0-.77.14.55.55 0 0 0 .13.77 12.6 12.6 0 0 0 3.74 1.71c1 .34 1.06 1.37 1.09 2.3v.1a7.47 7.47 0 0 1-.08 1.27 16.29 16.29 0 0 1-14.45 0 7.47 7.47 0 0 1-.08-1.27v-.1c0-.94.14-2 1.09-2.3a13.18 13.18 0 0 0 3.74-1.71.56.56 0 0 0-.64-.91 11.56 11.56 0 0 1-3.39 1.55c-1.77.62-1.83 2.52-1.85 3.33a.34.34 0 0 1 0 .1 6.74 6.74 0 0 0 .21 1.86.51.51 0 0 0 .22.26 17.29 17.29 0 0 0 16 0 .54.54 0 0 0 .21-.26 7 7 0 0 0 .2-1.86z" fill="#15f9ff" data-color="2"></path> <path d="M110.46 67.59h.13a3.78 3.78 0 0 0 2.89-1.25c1.58-1.78 1.32-4.84 1.29-5.13a4.2 4.2 0 0 0-2-3.72 4.42 4.42 0 0 0-2.2-.58h-.07a4.55 4.55 0 0 0-2.21.56 4.22 4.22 0 0 0-2 3.74c0 .29-.29 3.35 1.29 5.13a3.74 3.74 0 0 0 2.88 1.25zm-3.07-6.28c.14-2.94 2.22-3.26 3.11-3.26 1.11 0 3 .48 3.12 3.26s.29 2.82-1 4.29a2.71 2.71 0 0 1-2.11.88 2.7 2.7 0 0 1-2.11-.88c-1.3-1.46-1-4.26-1-4.29z" fill="#15f9ff" data-color="2"></path> <path d="M119 72.65v-.1c0-.81-.08-2.71-1.85-3.32a11.6 11.6 0 0 1-3.39-1.56.56.56 0 0 0-.77.14.55.55 0 0 0 .13.77 12.6 12.6 0 0 0 3.74 1.71c1 .34 1.06 1.37 1.09 2.3v.1a7.47 7.47 0 0 1-.08 1.27 16.29 16.29 0 0 1-14.45 0 7.47 7.47 0 0 1-.08-1.27v-.1c0-.94.13-2 1.09-2.3a13.18 13.18 0 0 0 3.74-1.71.56.56 0 0 0-.64-.91A11.54 11.54 0 0 1 104 69.2c-1.77.62-1.83 2.52-1.85 3.32a.41.41 0 0 1 0 .11 6.74 6.74 0 0 0 .21 1.86.51.51 0 0 0 .22.26 17.29 17.29 0 0 0 16 0 .54.54 0 0 0 .21-.26 7 7 0 0 0 .2-1.86z" fill="#15f9ff" data-color="2"></path> <path d="M80.62 67.59h.14a3.74 3.74 0 0 0 2.88-1.25c1.58-1.78 1.32-4.84 1.29-5.13a4.18 4.18 0 0 0-2-3.72 4.39 4.39 0 0 0-2.2-.58h-.07a4.51 4.51 0 0 0-2.2.56 4.2 4.2 0 0 0-2 3.74c0 .29-.3 3.35 1.28 5.13a3.74 3.74 0 0 0 2.88 1.25zm-3.07-6.28c.14-2.94 2.22-3.26 3.12-3.26 1.11 0 3 .48 3.12 3.26s.29 2.82-1 4.29a2.7 2.7 0 0 1-2.11.88 2.71 2.71 0 0 1-2.11-.88c-1.29-1.46-1-4.26-1-4.29z" fill="#15f9ff" data-color="2"></path> <path d="M89.11 72.65v-.1c0-.81-.08-2.71-1.85-3.32a11.58 11.58 0 0 1-3.4-1.56.56.56 0 0 0-.77.14.55.55 0 0 0 .13.77 12.6 12.6 0 0 0 3.74 1.71c1 .34 1.06 1.37 1.09 2.3a.31.31 0 0 0 0 .1 8.63 8.63 0 0 1-.09 1.27 16.29 16.29 0 0 1-14.45 0 7.47 7.47 0 0 1-.08-1.27v-.1c0-.94.14-2 1.09-2.3a13.18 13.18 0 0 0 3.74-1.71.56.56 0 0 0 .14-.77.55.55 0 0 0-.77-.14 11.85 11.85 0 0 1-3.4 1.55c-1.77.62-1.83 2.52-1.85 3.32v.11a6.3 6.3 0 0 0 .2 1.86.56.56 0 0 0 .22.26 15.49 15.49 0 0 0 8 2 15.55 15.55 0 0 0 8-2 .54.54 0 0 0 .21-.26 6.62 6.62 0 0 0 .2-1.86z" fill="#15f9ff" data-color="2"></path> <path d="M102.63 33.47a2.24 2.24 0 0 0 2.23-2.25v-29A2.24 2.24 0 0 0 102.63 0H88.77a2.25 2.25 0 0 0-2.24 2.24v29a2.25 2.25 0 0 0 2.24 2.25zM87.37 2.24a1.4 1.4 0 0 1 1.4-1.4h13.86a1.4 1.4 0 0 1 1.4 1.4V3.8H87.37zm0 2.4H104v22H87.37zm0 26.58v-3.78H104v3.78a1.41 1.41 0 0 1-1.4 1.41H88.77a1.41 1.41 0 0 1-1.4-1.41z" fill="#15f9ff" data-color="2"></path> <path d="M95.7 31.83a1.72 1.72 0 1 0-1.7-1.72 1.72 1.72 0 0 0 1.7 1.72zm0-2.61a.89.89 0 1 1-.88.89.88.88 0 0 1 .88-.89z" fill="#15f9ff" data-color="2"></path> <path d="M95.83 60.21h-1.08v-4.35h1.08zm0-8.71h-1.08v-4.35h1.08zm0-8.71h-1.08v-4.35h1.08z" fill="#15f9ff" data-color="2"></path> <path d="M22.73 20.42a1.1 1.1 0 0 1-.81-.37l-2.56-3A1.07 1.07 0 0 1 21 15.66l1.68 2 5.28-6.39c.82-1.15 1.68-.51.86.64L23.6 20a1.07 1.07 0 0 1-.82.45z" fill="#3f4971" data-color="1"></path> <path d="M23.26 75.86h.13a3.78 3.78 0 0 0 2.89-1.25c1.57-1.78 1.31-4.84 1.28-5.13a4.18 4.18 0 0 0-2-3.72 4.57 4.57 0 0 0-2.21-.58h-.05a4.54 4.54 0 0 0-2.2.56 4.2 4.2 0 0 0-2 3.74c0 .29-.29 3.35 1.29 5.13a3.74 3.74 0 0 0 2.88 1.25zm-3.08-6.28c.13-2.94 2.22-3.26 3.11-3.26h.05c1.11 0 3 .48 3.11 3.26s.29 2.82-1 4.29a2.64 2.64 0 0 1-2.1.88h-.05a2.64 2.64 0 0 1-2.1-.88c-1.3-1.46-1-4.26-1-4.29z" fill="#15f9ff" data-color="2"></path> <path d="M31.74 80.92v-.1c0-.81-.08-2.71-1.86-3.32a11.73 11.73 0 0 1-3.4-1.56.55.55 0 0 0-.63.91 12.6 12.6 0 0 0 3.74 1.71c.95.34 1.06 1.37 1.09 2.3v.1a7.45 7.45 0 0 1-.09 1.27 15 15 0 0 1-7.22 1.69 15.07 15.07 0 0 1-7.22-1.69 6.55 6.55 0 0 1-.15-1.29v-.1c0-.94.13-2 1.09-2.3a12.89 12.89 0 0 0 3.73-1.71.55.55 0 1 0-.63-.91 11.7 11.7 0 0 1-3.4 1.55C15 78.1 15 80 14.92 80.81v.1a6.37 6.37 0 0 0 .21 1.86.49.49 0 0 0 .21.26 15.51 15.51 0 0 0 8 2 15.49 15.49 0 0 0 8-2 .49.49 0 0 0 .21-.26 6.27 6.27 0 0 0 .2-1.86z" fill="#15f9ff" data-color="2"></path> <path d="M38.18 67.59h.13a3.78 3.78 0 0 0 2.89-1.25c1.57-1.78 1.31-4.84 1.28-5.13a4.18 4.18 0 0 0-2-3.72 4.46 4.46 0 0 0-2.21-.58h-.07a4.54 4.54 0 0 0-2.2.56 4.2 4.2 0 0 0-2 3.74c0 .29-.29 3.35 1.28 5.13a3.78 3.78 0 0 0 2.89 1.25zm-3.08-6.28c.13-2.94 2.22-3.26 3.11-3.26h.05c1.1 0 3 .48 3.11 3.26s.29 2.82-1 4.29a2.68 2.68 0 0 1-2.11.88 2.68 2.68 0 0 1-2.1-.88c-1.3-1.46-1-4.26-1-4.29z" fill="#15f9ff" data-color="2"></path> <path d="M46.66 72.65v-.1c0-.81-.08-2.71-1.86-3.32a11.73 11.73 0 0 1-3.4-1.56.56.56 0 0 0-.77.14.55.55 0 0 0 .14.77 12.6 12.6 0 0 0 3.74 1.71c1 .34 1.06 1.37 1.08 2.3a.31.31 0 0 0 0 .1 7.45 7.45 0 0 1-.09 1.27 15 15 0 0 1-7.22 1.69A15 15 0 0 1 31 73.94a6.55 6.55 0 0 1-.09-1.27v-.1c0-.94.13-2 1.08-2.3a13.18 13.18 0 0 0 3.74-1.71.55.55 0 1 0-.63-.91 11.7 11.7 0 0 1-3.4 1.55c-1.78.62-1.83 2.52-1.86 3.32v.11a6.37 6.37 0 0 0 .21 1.86.49.49 0 0 0 .21.26 15.51 15.51 0 0 0 8 2 15.49 15.49 0 0 0 8-2 .49.49 0 0 0 .21-.26 6.62 6.62 0 0 0 .2-1.86z" fill="#15f9ff" data-color="2"></path> <path d="M8.34 67.59h.13a3.78 3.78 0 0 0 2.89-1.25c1.58-1.78 1.31-4.84 1.28-5.13a4.18 4.18 0 0 0-2-3.72 4.46 4.46 0 0 0-2.21-.58h-.04a4.55 4.55 0 0 0-2.21.56 4.2 4.2 0 0 0-2 3.74c0 .29-.29 3.35 1.29 5.13a3.74 3.74 0 0 0 2.88 1.25zm-3.08-6.28C5.4 58.34 7.49 58 8.38 58c1.11 0 3 .48 3.11 3.26s.29 2.82-1 4.29a2.71 2.71 0 0 1-2.11.88 2.68 2.68 0 0 1-2.11-.88c-1.3-1.46-1-4.26-1-4.29z" fill="#15f9ff" data-color="2"></path> <path d="M16.82 72.65v-.1c0-.81-.08-2.71-1.86-3.32a11.73 11.73 0 0 1-3.4-1.56.55.55 0 1 0-.63.91 12.6 12.6 0 0 0 3.74 1.71c.95.34 1.06 1.37 1.09 2.3v.1a7.45 7.45 0 0 1-.09 1.27 15 15 0 0 1-7.22 1.69 15.07 15.07 0 0 1-7.22-1.69 6.55 6.55 0 0 1-.09-1.27v-.1c0-.94.13-2 1.09-2.3a13.18 13.18 0 0 0 3.74-1.71.56.56 0 0 0-.64-.91A11.7 11.7 0 0 1 1.9 69.2C.08 69.83 0 71.73 0 72.53a.41.41 0 0 1 0 .11 6.37 6.37 0 0 0 .21 1.86.49.49 0 0 0 .21.26 15.55 15.55 0 0 0 8 2 15.45 15.45 0 0 0 8-2 .56.56 0 0 0 .22-.26 6.55 6.55 0 0 0 .19-1.86z" fill="#15f9ff" data-color="2"></path> <path d="M30.34 33.47a2.24 2.24 0 0 0 2.24-2.25v-29A2.24 2.24 0 0 0 30.34 0H16.48a2.24 2.24 0 0 0-2.23 2.24v29a2.24 2.24 0 0 0 2.23 2.25zM15.08 2.24a1.4 1.4 0 0 1 1.4-1.4h13.86a1.4 1.4 0 0 1 1.4 1.4V3.8H15.08zm0 2.4h16.66v22H15.08zm0 26.58v-3.78h16.66v3.78a1.4 1.4 0 0 1-1.4 1.41H16.48a1.41 1.41 0 0 1-1.4-1.41z" fill="#15f9ff" data-color="2"></path> <path d="M23.41 31.83a1.72 1.72 0 1 0-1.71-1.72 1.72 1.72 0 0 0 1.71 1.72zm0-2.61a.89.89 0 1 1 0 1.77.89.89 0 0 1 0-1.77z" fill="#15f9ff" data-color="2"></path> <path d="M23.55 60.21h-1.09v-4.35h1.09zm0-8.71h-1.09v-4.35h1.09zm0-8.71h-1.09v-4.35h1.09z" fill="#15f9ff" data-color="2"></path> </g> </g> </svg> 